<mxfile host="Electron" modified="2024-03-17T23:55:14.085Z" agent="Mozilla/5.0 (Macintosh; Intel Mac OS X 10_15_7) AppleWebKit/537.36 (KHTML, like Gecko) draw.io/24.0.4 Chrome/120.0.6099.109 Electron/28.1.0 Safari/537.36" etag="lzuJKdGEyaRS8CzMLDJO" version="24.0.4" type="device">
  <diagram name="Page-1" id="Cob6NNDtT91jN5K-ru7g">
    <mxGraphModel dx="1240" dy="772" grid="1" gridSize="10" guides="1" tooltips="1" connect="1" arrows="1" fold="1" page="1" pageScale="1" pageWidth="850" pageHeight="1100" math="0" shadow="0">
      <root>
        <mxCell id="0" />
        <mxCell id="1" parent="0" />
        <mxCell id="1FTYU-7Bd4bms-fDyBVy-5" value="Single File/Item Reference" style="rounded=1;whiteSpace=wrap;html=1;sketch=1;hachureGap=4;jiggle=2;curveFitting=1;fontFamily=Architects Daughter;fontSource=https%3A%2F%2Ffonts.googleapis.com%2Fcss%3Ffamily%3DArchitects%2BDaughter;verticalAlign=bottom;labelPosition=center;verticalLabelPosition=top;align=center;" vertex="1" parent="1">
          <mxGeometry x="20" y="40" width="200" height="700" as="geometry" />
        </mxCell>
        <mxCell id="1FTYU-7Bd4bms-fDyBVy-1" value="RIS" style="rounded=1;whiteSpace=wrap;html=1;sketch=1;hachureGap=4;jiggle=2;curveFitting=1;fontFamily=Architects Daughter;fontSource=https%3A%2F%2Ffonts.googleapis.com%2Fcss%3Ffamily%3DArchitects%2BDaughter;" vertex="1" parent="1">
          <mxGeometry x="60" y="100" width="120" height="60" as="geometry" />
        </mxCell>
        <mxCell id="1FTYU-7Bd4bms-fDyBVy-2" value="BibTex" style="rounded=1;whiteSpace=wrap;html=1;sketch=1;hachureGap=4;jiggle=2;curveFitting=1;fontFamily=Architects Daughter;fontSource=https%3A%2F%2Ffonts.googleapis.com%2Fcss%3Ffamily%3DArchitects%2BDaughter;" vertex="1" parent="1">
          <mxGeometry x="60" y="190" width="120" height="60" as="geometry" />
        </mxCell>
        <mxCell id="1FTYU-7Bd4bms-fDyBVy-3" value="RefMan" style="rounded=1;whiteSpace=wrap;html=1;sketch=1;hachureGap=4;jiggle=2;curveFitting=1;fontFamily=Architects Daughter;fontSource=https%3A%2F%2Ffonts.googleapis.com%2Fcss%3Ffamily%3DArchitects%2BDaughter;" vertex="1" parent="1">
          <mxGeometry x="60" y="280" width="120" height="60" as="geometry" />
        </mxCell>
        <mxCell id="1FTYU-7Bd4bms-fDyBVy-4" value="RefWorks" style="rounded=1;whiteSpace=wrap;html=1;sketch=1;hachureGap=4;jiggle=2;curveFitting=1;fontFamily=Architects Daughter;fontSource=https%3A%2F%2Ffonts.googleapis.com%2Fcss%3Ffamily%3DArchitects%2BDaughter;" vertex="1" parent="1">
          <mxGeometry x="60" y="370" width="120" height="60" as="geometry" />
        </mxCell>
        <mxCell id="1FTYU-7Bd4bms-fDyBVy-6" value="EndNote" style="rounded=1;whiteSpace=wrap;html=1;sketch=1;hachureGap=4;jiggle=2;curveFitting=1;fontFamily=Architects Daughter;fontSource=https%3A%2F%2Ffonts.googleapis.com%2Fcss%3Ffamily%3DArchitects%2BDaughter;" vertex="1" parent="1">
          <mxGeometry x="60" y="460" width="120" height="60" as="geometry" />
        </mxCell>
        <mxCell id="1FTYU-7Bd4bms-fDyBVy-7" value="TEI" style="rounded=1;whiteSpace=wrap;html=1;sketch=1;hachureGap=4;jiggle=2;curveFitting=1;fontFamily=Architects Daughter;fontSource=https%3A%2F%2Ffonts.googleapis.com%2Fcss%3Ffamily%3DArchitects%2BDaughter;" vertex="1" parent="1">
          <mxGeometry x="60" y="550" width="120" height="60" as="geometry" />
        </mxCell>
        <mxCell id="1FTYU-7Bd4bms-fDyBVy-24" value="Zotero RDF" style="rounded=1;whiteSpace=wrap;html=1;sketch=1;hachureGap=4;jiggle=2;curveFitting=1;fontFamily=Architects Daughter;fontSource=https%3A%2F%2Ffonts.googleapis.com%2Fcss%3Ffamily%3DArchitects%2BDaughter;" vertex="1" parent="1">
          <mxGeometry x="60" y="640" width="120" height="60" as="geometry" />
        </mxCell>
        <mxCell id="1FTYU-7Bd4bms-fDyBVy-27" value="external search templates" style="rounded=1;whiteSpace=wrap;html=1;sketch=1;hachureGap=4;jiggle=2;curveFitting=1;fontFamily=Architects Daughter;fontSource=https%3A%2F%2Ffonts.googleapis.com%2Fcss%3Ffamily%3DArchitects%2BDaughter;verticalAlign=bottom;labelPosition=center;verticalLabelPosition=top;align=center;" vertex="1" parent="1">
          <mxGeometry x="250" y="35" width="300" height="710" as="geometry" />
        </mxCell>
        <mxCell id="1FTYU-7Bd4bms-fDyBVy-28" value="google scholar" style="rounded=1;whiteSpace=wrap;html=1;sketch=1;hachureGap=4;jiggle=2;curveFitting=1;fontFamily=Architects Daughter;fontSource=https%3A%2F%2Ffonts.googleapis.com%2Fcss%3Ffamily%3DArchitects%2BDaughter;" vertex="1" parent="1">
          <mxGeometry x="270" y="75" width="120" height="60" as="geometry" />
        </mxCell>
        <mxCell id="1FTYU-7Bd4bms-fDyBVy-29" value="google search" style="rounded=1;whiteSpace=wrap;html=1;sketch=1;hachureGap=4;jiggle=2;curveFitting=1;fontFamily=Architects Daughter;fontSource=https%3A%2F%2Ffonts.googleapis.com%2Fcss%3Ffamily%3DArchitects%2BDaughter;" vertex="1" parent="1">
          <mxGeometry x="275" y="155" width="120" height="60" as="geometry" />
        </mxCell>
        <mxCell id="1FTYU-7Bd4bms-fDyBVy-30" value="duckduckgo" style="rounded=1;whiteSpace=wrap;html=1;sketch=1;hachureGap=4;jiggle=2;curveFitting=1;fontFamily=Architects Daughter;fontSource=https%3A%2F%2Ffonts.googleapis.com%2Fcss%3Ffamily%3DArchitects%2BDaughter;" vertex="1" parent="1">
          <mxGeometry x="270" y="235" width="120" height="60" as="geometry" />
        </mxCell>
        <mxCell id="1FTYU-7Bd4bms-fDyBVy-31" value="generic blog" style="rounded=1;whiteSpace=wrap;html=1;sketch=1;hachureGap=4;jiggle=2;curveFitting=1;fontFamily=Architects Daughter;fontSource=https%3A%2F%2Ffonts.googleapis.com%2Fcss%3Ffamily%3DArchitects%2BDaughter;" vertex="1" parent="1">
          <mxGeometry x="270" y="315" width="120" height="60" as="geometry" />
        </mxCell>
        <mxCell id="1FTYU-7Bd4bms-fDyBVy-32" value="redit" style="rounded=1;whiteSpace=wrap;html=1;sketch=1;hachureGap=4;jiggle=2;curveFitting=1;fontFamily=Architects Daughter;fontSource=https%3A%2F%2Ffonts.googleapis.com%2Fcss%3Ffamily%3DArchitects%2BDaughter;" vertex="1" parent="1">
          <mxGeometry x="270" y="395" width="120" height="60" as="geometry" />
        </mxCell>
        <mxCell id="1FTYU-7Bd4bms-fDyBVy-33" value="medium" style="rounded=1;whiteSpace=wrap;html=1;sketch=1;hachureGap=4;jiggle=2;curveFitting=1;fontFamily=Architects Daughter;fontSource=https%3A%2F%2Ffonts.googleapis.com%2Fcss%3Ffamily%3DArchitects%2BDaughter;" vertex="1" parent="1">
          <mxGeometry x="270" y="475" width="120" height="60" as="geometry" />
        </mxCell>
        <mxCell id="1FTYU-7Bd4bms-fDyBVy-34" value="stackexchange" style="rounded=1;whiteSpace=wrap;html=1;sketch=1;hachureGap=4;jiggle=2;curveFitting=1;fontFamily=Architects Daughter;fontSource=https%3A%2F%2Ffonts.googleapis.com%2Fcss%3Ffamily%3DArchitects%2BDaughter;" vertex="1" parent="1">
          <mxGeometry x="275" y="555" width="120" height="60" as="geometry" />
        </mxCell>
        <mxCell id="1FTYU-7Bd4bms-fDyBVy-35" value="tomshardware" style="rounded=1;whiteSpace=wrap;html=1;sketch=1;hachureGap=4;jiggle=2;curveFitting=1;fontFamily=Architects Daughter;fontSource=https%3A%2F%2Ffonts.googleapis.com%2Fcss%3Ffamily%3DArchitects%2BDaughter;" vertex="1" parent="1">
          <mxGeometry x="275" y="635" width="120" height="60" as="geometry" />
        </mxCell>
        <mxCell id="1FTYU-7Bd4bms-fDyBVy-36" value="US Patent Office" style="rounded=1;whiteSpace=wrap;html=1;sketch=1;hachureGap=4;jiggle=2;curveFitting=1;fontFamily=Architects Daughter;fontSource=https%3A%2F%2Ffonts.googleapis.com%2Fcss%3Ffamily%3DArchitects%2BDaughter;" vertex="1" parent="1">
          <mxGeometry x="410" y="75" width="120" height="60" as="geometry" />
        </mxCell>
        <mxCell id="1FTYU-7Bd4bms-fDyBVy-37" value="DARPA&lt;div&gt;Authorized Grants&lt;/div&gt;" style="rounded=1;whiteSpace=wrap;html=1;sketch=1;hachureGap=4;jiggle=2;curveFitting=1;fontFamily=Architects Daughter;fontSource=https%3A%2F%2Ffonts.googleapis.com%2Fcss%3Ffamily%3DArchitects%2BDaughter;" vertex="1" parent="1">
          <mxGeometry x="410" y="155" width="120" height="60" as="geometry" />
        </mxCell>
        <mxCell id="1FTYU-7Bd4bms-fDyBVy-38" value="NIH Published Data" style="rounded=1;whiteSpace=wrap;html=1;sketch=1;hachureGap=4;jiggle=2;curveFitting=1;fontFamily=Architects Daughter;fontSource=https%3A%2F%2Ffonts.googleapis.com%2Fcss%3Ffamily%3DArchitects%2BDaughter;" vertex="1" parent="1">
          <mxGeometry x="410" y="235" width="120" height="60" as="geometry" />
        </mxCell>
        <mxCell id="1FTYU-7Bd4bms-fDyBVy-39" value="Public NIST Data" style="rounded=1;whiteSpace=wrap;html=1;sketch=1;hachureGap=4;jiggle=2;curveFitting=1;fontFamily=Architects Daughter;fontSource=https%3A%2F%2Ffonts.googleapis.com%2Fcss%3Ffamily%3DArchitects%2BDaughter;" vertex="1" parent="1">
          <mxGeometry x="410" y="315" width="120" height="60" as="geometry" />
        </mxCell>
        <mxCell id="1FTYU-7Bd4bms-fDyBVy-40" value="Public NOAA Data" style="rounded=1;whiteSpace=wrap;html=1;sketch=1;hachureGap=4;jiggle=2;curveFitting=1;fontFamily=Architects Daughter;fontSource=https%3A%2F%2Ffonts.googleapis.com%2Fcss%3Ffamily%3DArchitects%2BDaughter;" vertex="1" parent="1">
          <mxGeometry x="410" y="395" width="120" height="60" as="geometry" />
        </mxCell>
        <mxCell id="1FTYU-7Bd4bms-fDyBVy-41" value="Public NGS Data" style="rounded=1;whiteSpace=wrap;html=1;sketch=1;hachureGap=4;jiggle=2;curveFitting=1;fontFamily=Architects Daughter;fontSource=https%3A%2F%2Ffonts.googleapis.com%2Fcss%3Ffamily%3DArchitects%2BDaughter;" vertex="1" parent="1">
          <mxGeometry x="410" y="475" width="120" height="60" as="geometry" />
        </mxCell>
        <mxCell id="1FTYU-7Bd4bms-fDyBVy-42" value="Public NFS DATA" style="rounded=1;whiteSpace=wrap;html=1;sketch=1;hachureGap=4;jiggle=2;curveFitting=1;fontFamily=Architects Daughter;fontSource=https%3A%2F%2Ffonts.googleapis.com%2Fcss%3Ffamily%3DArchitects%2BDaughter;" vertex="1" parent="1">
          <mxGeometry x="410" y="555" width="120" height="60" as="geometry" />
        </mxCell>
        <mxCell id="1FTYU-7Bd4bms-fDyBVy-43" value="ETC..." style="rounded=1;whiteSpace=wrap;html=1;sketch=1;hachureGap=4;jiggle=2;curveFitting=1;fontFamily=Architects Daughter;fontSource=https%3A%2F%2Ffonts.googleapis.com%2Fcss%3Ffamily%3DArchitects%2BDaughter;" vertex="1" parent="1">
          <mxGeometry x="410" y="635" width="120" height="60" as="geometry" />
        </mxCell>
        <mxCell id="1FTYU-7Bd4bms-fDyBVy-45" value="Plugin Interface MODEL shared with or similar to, or at least able to communicate/integrate with CK/CM (Collective Knowledge/Collective Mind) - with a way to connect the two)" style="shape=process;whiteSpace=wrap;html=1;backgroundOutline=1;sketch=1;hachureGap=4;jiggle=2;curveFitting=1;fontFamily=Architects Daughter;fontSource=https%3A%2F%2Ffonts.googleapis.com%2Fcss%3Ffamily%3DArchitects%2BDaughter;" vertex="1" parent="1">
          <mxGeometry x="20" y="780" width="300" height="170" as="geometry" />
        </mxCell>
        <mxCell id="1FTYU-7Bd4bms-fDyBVy-46" value="Notes:&lt;div&gt;&lt;br&gt;&lt;/div&gt;&lt;div&gt;Notes are in Markdown file format, with few exceptions, including some kind of way to render timelines (via json, similar to the way Obsidian renders timelines) for documenting timelines for storytelling about a document, or about how a selection of documents tells a story.&amp;nbsp; Any other additions to the Markdown format that is non-standard will have to be fully documented and be via an open plugin, so someone may pick up the reigns or fork the project if there is a problem and an owner of the plugin becomes unresponsive through accident or injury.&lt;/div&gt;&lt;div&gt;&lt;br&gt;&lt;/div&gt;&lt;div&gt;Notes can have attachments, but preferably links to files or content.&amp;nbsp; Anything that can be attached as a file aor item reference, can be attached to a note, including a reference. file (and associated attachment to that reference.)&lt;/div&gt;&lt;div&gt;&lt;br&gt;&lt;/div&gt;&lt;div&gt;All of these need to be broken out into software requirements for building the Notes model.&lt;/div&gt;&lt;div&gt;&lt;br&gt;&lt;/div&gt;" style="rounded=1;whiteSpace=wrap;html=1;sketch=1;hachureGap=4;jiggle=2;curveFitting=1;fontFamily=Architects Daughter;fontSource=https%3A%2F%2Ffonts.googleapis.com%2Fcss%3Ffamily%3DArchitects%2BDaughter;" vertex="1" parent="1">
          <mxGeometry x="580" y="55" width="220" height="510" as="geometry" />
        </mxCell>
      </root>
    </mxGraphModel>
  </diagram>
</mxfile>
